<mxfile host="app.diagrams.net" modified="2021-06-15T01:53:41.191Z" agent="5.0 (Windows NT 10.0; Win64; x64) AppleWebKit/537.36 (KHTML, like Gecko) Chrome/91.0.4472.77 Safari/537.36" etag="COM4tXfEl_4Oc6G5mJ74" version="14.7.7" type="github">
  <diagram id="dEx6iI7eKl6fTZGobW3s" name="Page-1">
    <mxGraphModel dx="447" dy="271" grid="1" gridSize="10" guides="1" tooltips="1" connect="1" arrows="1" fold="1" page="1" pageScale="1" pageWidth="850" pageHeight="1100" math="0" shadow="0">
      <root>
        <mxCell id="0" />
        <mxCell id="1" parent="0" />
        <mxCell id="VkatFb8tjk3PXEhCPRFh-12" style="edgeStyle=orthogonalEdgeStyle;rounded=0;orthogonalLoop=1;jettySize=auto;html=1;entryX=0.044;entryY=0.656;entryDx=0;entryDy=0;entryPerimeter=0;" edge="1" parent="1" source="VkatFb8tjk3PXEhCPRFh-4" target="VkatFb8tjk3PXEhCPRFh-5">
          <mxGeometry relative="1" as="geometry">
            <mxPoint x="308" y="238" as="targetPoint" />
            <Array as="points">
              <mxPoint x="240" y="239" />
              <mxPoint x="240" y="239" />
            </Array>
          </mxGeometry>
        </mxCell>
        <mxCell id="VkatFb8tjk3PXEhCPRFh-4" value="Client" style="rounded=1;whiteSpace=wrap;html=1;" vertex="1" parent="1">
          <mxGeometry x="150" y="160" width="60" height="120" as="geometry" />
        </mxCell>
        <mxCell id="VkatFb8tjk3PXEhCPRFh-9" value="Http2&lt;br&gt;Persist connection" style="edgeStyle=orthogonalEdgeStyle;rounded=0;orthogonalLoop=1;jettySize=auto;html=1;entryX=0;entryY=0.5;entryDx=0;entryDy=0;" edge="1" parent="1" source="VkatFb8tjk3PXEhCPRFh-5" target="VkatFb8tjk3PXEhCPRFh-6">
          <mxGeometry y="-30" relative="1" as="geometry">
            <mxPoint as="offset" />
          </mxGeometry>
        </mxCell>
        <mxCell id="VkatFb8tjk3PXEhCPRFh-5" value="Envoy" style="rounded=1;whiteSpace=wrap;html=1;" vertex="1" parent="1">
          <mxGeometry x="310" y="160" width="60" height="120" as="geometry" />
        </mxCell>
        <mxCell id="VkatFb8tjk3PXEhCPRFh-10" style="edgeStyle=orthogonalEdgeStyle;rounded=0;orthogonalLoop=1;jettySize=auto;html=1;entryX=0;entryY=0.5;entryDx=0;entryDy=0;" edge="1" parent="1" source="VkatFb8tjk3PXEhCPRFh-6" target="VkatFb8tjk3PXEhCPRFh-7">
          <mxGeometry relative="1" as="geometry" />
        </mxCell>
        <mxCell id="VkatFb8tjk3PXEhCPRFh-6" value="Envoy" style="rounded=1;whiteSpace=wrap;html=1;" vertex="1" parent="1">
          <mxGeometry x="470" y="160" width="60" height="120" as="geometry" />
        </mxCell>
        <mxCell id="VkatFb8tjk3PXEhCPRFh-7" value="Server" style="rounded=1;whiteSpace=wrap;html=1;" vertex="1" parent="1">
          <mxGeometry x="630" y="160" width="60" height="120" as="geometry" />
        </mxCell>
        <mxCell id="VkatFb8tjk3PXEhCPRFh-13" value="" style="endArrow=none;dashed=1;html=1;dashPattern=1 3;strokeWidth=2;" edge="1" parent="1">
          <mxGeometry width="50" height="50" relative="1" as="geometry">
            <mxPoint x="230" y="240" as="sourcePoint" />
            <mxPoint x="230" y="200" as="targetPoint" />
          </mxGeometry>
        </mxCell>
      </root>
    </mxGraphModel>
  </diagram>
</mxfile>
